<svg xmlns="http://www.w3.org/2000/svg" data-name="Layer 1" viewBox="0 0 64 64" id="computer"><path d="M6 22h2v2H6zM10 22h2v2h-2zM6 26h2v2H6zM10 26h2v2h-2zM6 14h2v2H6zM10 14h2v2h-2zM6 18h2v2H6zM10 18h2v2h-2zM6 10h2v2H6zM10 10h2v2h-2zM6 6h2v2H6zM10 6h2v2h-2zM59.007 3H44.993A3 3 0 0 0 42 5.993v30.014A3 3 0 0 0 44.993 39H51v3H32a1 1 0 0 0-1 1v5H7a1 1 0 0 0-.949.684l-4 12A1 1 0 0 0 3 62h58a1 1 0 0 0 .949-1.316l-4-12A1 1 0 0 0 57 48H33v-4h19a1 1 0 0 0 1-1v-4h6.007A3 3 0 0 0 62 36.007V5.993A3 3 0 0 0 59.007 3Zm.606 57H4.387l3.334-10h48.558ZM60 36.007a.994.994 0 0 1-.993.993H44.993a.994.994 0 0 1-.993-.993V5.993A.994.994 0 0 1 44.993 5h14.014a.994.994 0 0 1 .993.993Z"></path><path d="M4.855 32h10.75l1.409 3.24-7.372 2.826A1 1 0 0 0 10 40h24a1 1 0 0 0 .323-1.946L25.958 35.2l1.393-3.2h9.794A2.859 2.859 0 0 0 40 29.145V4.855A2.859 2.859 0 0 0 37.145 2H4.855A2.859 2.859 0 0 0 2 4.855v24.29A2.859 2.859 0 0 0 4.855 32Zm18.839 4.2a1 1 0 0 0 .592.542L27.965 38H15.4l3.3-1.267a1 1 0 0 0 .559-1.332L17.786 32h7.384l-1.478 3.4a1 1 0 0 0 .002.8ZM4 4.855A.857.857 0 0 1 4.855 4h32.29a.857.857 0 0 1 .855.855v24.29a.857.857 0 0 1-.855.855H4.855A.857.857 0 0 1 4 29.145ZM46 7h12v2H46zM46 11h12v2H46zM52 29a3 3 0 1 0 3 3 3 3 0 0 0-3-3zm0 4a1 1 0 1 1 1-1 1 1 0 0 1-1 1zm0-12a3 3 0 1 0 3 3 3 3 0 0 0-3-3zm0 4a1 1 0 1 1 1-1 1 1 0 0 1-1 1zM47 15h2v2h-2zM51 17h2v2h-2zM55 15h2v2h-2zM9 52h2v2H9zM8 56h4v2H8zM52 56h4v2h-4zM28 56h8v2h-8zM13 52h2v2h-2zM17 52h2v2h-2zM21 52h2v2h-2zM17 56h2v2h-2zM21 56h2v2h-2zM41 56h2v2h-2zM45 56h2v2h-2zM25 52h2v2h-2zM29 52h2v2h-2zM33 52h2v2h-2zM37 52h2v2h-2zM41 52h2v2h-2zM45 52h2v2h-2zM49 52h2v2h-2zM53 52h2v2h-2z"></path></svg>