<svg xmlns="http://www.w3.org/2000/svg" enable-background="new 0 0 67 67" viewBox="0 0 67 67" id="ComputerDesigning"><path fill="#f4f4f4" d="M47.89476,38.92196c-0.15323,1.42015-1.8227,3.01707-3.01822,3.77317L8.70449,63.27784L47.80284,5.54048
				L47.89476,38.92196z" class="colorf4f4f4 svgShape"></path><path fill="#d9dbdf" d="M5.85436 34.24742c-.11133 0-.20264-.08936-.20459-.20117l-.07666-4.46826c-.00635-.83203.62939-1.9292 1.36035-2.35059l1.45019-.83691c.09668-.05615.22217-.02344.2793.0752.05614.09766.02295.22266-.0752.2793l-1.45019.83691c-.59912.34521-1.16064 1.3125-1.15527 1.99121l.07666 4.46631c.00195.11279-.08838.20605-.20117.20801C5.85681 34.24742 5.85534 34.24742 5.85436 34.24742zM9.52917 26.17027c-.07031 0-.13916-.03662-.17725-.10254-.05615-.09766-.02295-.22266.0752-.2793l1.45947-.84277c.09717-.05615.22266-.02344.2793.0752.05615.09766.02295.22266-.0752.2793l-1.45947.84277C9.59899 26.16148 9.56384 26.17027 9.52917 26.17027z" class="colord9dadf svgShape"></path><path fill="#34a853" d="M5.43298,65.27329c-0.33301,0-0.64111-0.09375-0.9043-0.28271
				c-0.22412-0.16113-0.27539-0.47363-0.11426-0.69824c0.16016-0.22412,0.47314-0.27637,0.69824-0.11426
				c0.22266,0.16064,0.58789,0.11621,0.99902-0.12207l39.50391-22.80322c0.96631-0.56348,1.78418-1.98047,1.78418-3.09277
				l-0.01025-2.73096c-0.00098-0.27637,0.22217-0.50098,0.49805-0.50195c0.30566,0.00439,0.50098,0.22217,0.50195,0.49805
				l0.01025,2.73291c0,1.47461-1.00244,3.21289-2.28223,3.95947L6.61169,64.92222
				C6.2069,65.15611,5.80456,65.27329,5.43298,65.27329z" class="color383838 svgShape"></path><path fill="#8f96a1" d="M26.97868,49.80787c0,0.6259-0.45645,1.40827-1.00411,1.72122
				c-0.54766,0.326-1.00411,0.06526-1.00411-0.57369c0-0.6259,0.4434-1.40843,1.00411-1.73443
				C26.52223,48.90803,26.96563,49.16892,26.97868,49.80787z" class="color908fa1 svgShape"></path><polygon fill="#d9dbdf" points="31.247 27.209 31.267 39.127 21.547 44.739 21.528 32.821" class="colord9dadf svgShape"></polygon><polygon fill="#fbbc05" points="42.436 32.682 32.709 38.29 32.698 26.378 42.414 20.759" class="colorf9d893 svgShape"></polygon><polygon fill="#ea4335" points="20.101 33.66 20.123 45.572 10.396 51.191 10.374 39.268" class="coloref473e svgShape"></polygon><polygon fill="#d9dbdf" points="42.306 18.382 10.356 36.832 10.336 29.432 42.286 10.982" class="colord9dadf svgShape"></polygon><path fill="#ffffff" d="M61.85479,19.66275c0,0.8999-0.64001,2-1.40997,2.44995l-17.07001,9.8501
			c-0.41998,0.25-0.81,0.25-1.07001,0.04993c0.02002,0.02002,0.03998,0.04004,0.06,0.04993l-2.47204-1.34103
			c-0.25-0.15015-0.41003-0.46008-0.41003-0.91016l-0.03998-14.66992c0-0.90002,0.63-2,1.40997-2.44995l17.07001-9.8501
			c0.39001-0.22998,0.75-0.25,1.01001-0.09998l2.41204,1.31124c0.28003,0.13,0.46002,0.45996,0.47003,0.94006L61.85479,19.66275z" class="colorffffff svgShape"></path><path fill="#4285f4" d="M58.54557,15.27241v-2.20996l-1.65002,0.68994c-0.09998-0.44995-0.26001-0.83008-0.47998-1.14001
				l0.96997-2.04993l-1.35999-0.78003l-1.25,1.80005c-0.40002-0.05005-0.82001-0.02002-1.28003,0.09985l-0.22998-1.61987
				l-1.92999,1.10986l-0.21002,1.88013c-0.45996,0.40991-0.88995,0.87988-1.28998,1.37988l-1.25-0.34985l-1.34998,2.33984
				l0.96997,0.93005c-0.21002,0.56995-0.37,1.13-0.46997,1.69006l-1.64001,1.20996l0.01001,2.20996l1.70996-0.70996
				c0.11005,0.38,0.28003,0.70996,0.48999,0.97998l-1.04999,2.23999l1.35999,0.78003l1.45001-2.09998
				c0.33002,0.02991,0.67999-0.02002,1.04999-0.12l0.26001,1.93994l1.92999-1.10999l0.25-2.23999
				c0.37006-0.32996,0.72003-0.68005,1.04004-1.07996l1.46997,0.40991l1.35004-2.33997l-1.07001-1.0199
				c0.20996-0.51001,0.37-1.03003,0.48999-1.55005L58.54557,15.27241z M52.33555,20.93232
				c-1.59998,0.92004-2.90002,0.18005-2.90002-1.6499c-0.00995-1.84009,1.28003-4.08008,2.88-5
				c1.60004-0.92004,2.89001-0.18005,2.90002,1.65991C55.21556,17.77241,53.93553,20.0124,52.33555,20.93232z" class="color662ddc svgShape"></path><path fill="#979fab" d="M39.9569 55.09507c.21875-.24365.33398-.52051.33398-.80029 0-.13818-.11182-.25-.25-.25s-.25.11182-.25.25c0 .15479-.07129.31592-.21191.47314-.08203.09814-.20361.19482-.3623.28857L26.7445 62.52281c-.06006.0376-.13477.07227-.21631.09961l.00049.00049c-.021.00732-.04102.01709-.05958.0293-.93993.3877-2.20653.24805-2.80809-.12744-.12012-.08057-4.77637-3.39502-6.3125-4.49854-.11279-.08057-.26904-.05518-.34912.05713-.08057.1123-.05469.26855.05713.34912 1.26367.90723 6.26514 4.47168 6.33545 4.51367.4585.28662 1.12305.43457 1.79541.43457.53076 0 1.06689-.09229 1.50879-.28125.01172-.00537.02344-.01172.03467-.01855.10303-.03711.19629-.08252.27539-.13232l12.46582-7.4624C39.67858 55.3646 39.84362 55.23082 39.9569 55.09507zM4.55798 63.32896l-.00739-2.60107 43.46198-25.09326c.11963-.06885.16064-.22168.09131-.34131s-.22266-.16113-.34131-.09131L4.54894 60.15171 4.46179 29.58043c-.00928-1.20996.84766-2.69287 1.91064-3.30518L45.88268 3.47154C46.3446 3.19712 46.76891 3.14537 47.078 3.3275c.11865.06982.27197.03076.34229-.08838s.03076-.27246-.08838-.34229c-.47314-.27881-1.07764-.22754-1.70166.14355L6.12243 25.84214c-.64996.37451-1.21674 1.01709-1.60895 1.7439l-2.52826-1.14087c-.12549-.05713-.27393-.00098-.33105.125-.05664.12598-.00049.27393.125.33105l2.51624 1.1355c-.21307.51099-.33734 1.04443-.33362 1.54614l.09619 33.74707c0 .70214.26221 1.25683.71973 1.52197.03955.02295.08252.03369.12549.03369.08594 0 .16992-.04443.21631-.12451.06934-.11963.02832-.27246-.09082-.3418C4.72936 64.24595 4.55798 63.84898 4.55798 63.32896z" class="color979aab svgShape"></path><path fill="#979fab" d="M30.44659 50.28965l-5.69 3.29004-2.56995 1.48999c-.08002.04004-.13.12-.13.20996l-.02002 2.40002c0 .08997.04999.18005.13.21997l2.62 1.53003c.03998.02002.08002.02991.12.02991s.09003-.00989.13-.02991l.06-.03992 5.62-3.25c.08002-.04004.13-.13013.13-.22009l-.02002-5.41003c0-.08997-.04999-.16992-.13-.21997C30.61663 50.24961 30.52661 50.24961 30.44659 50.28965zM22.55663 55.42967l2.07996-1.21008.02002 4.55005-2.12-1.22998L22.55663 55.42967zM25.15661 58.77964l-.02002-4.83997 5.19-3 .02002 4.83997L25.15661 58.77964zM44.54662 8.89964c0-.89862-.72298-1.28833-1.48999-.84998L9.28661 27.55967c-.69.3999-1.23999 1.33008-1.23999 2.12l.07001 19.93005c0 .11047.00093.57536.00995 4.06995 0 .88725.72453 1.30143 1.47003.83997l33.78998-19.51001c.69-.3999 1.22003-1.32996 1.22003-2.11987v-1.3501l15.95996-9.20996c.87006-.5 1.54004-1.67004 1.54004-2.67004L62.06658 4.9896c-.00995-.52002-.20996-.91992-.53998-1.10986 0-.01001-.01001-.01001-.02002-.02002 0 0 0-.01001-.00995-.01001l-.05005-.02002-2.38995-1.30005c-.35004-.19995-.81-.16992-1.26001.1001l-13.25 7.6499V8.89964zM60.31658 21.88975c-25.34389 14.64957 7.46894-4.31357-17.06995 9.85986-.40002.22998-.75.19006-.92004-.08997-.03998-.04993-.06-.12-.07996-.19006-.03003-.08984-.04004-.19995-.04004-.31995L42.16662 16.4796c0-.8103.55947-1.81809 1.27997-2.22998 1.93665-1.11639 10.19438-5.88248 17.07001-9.84998.17999-.10999.35999-.16003.51001-.16003.09003 0 .16003.02002.22998.05005.20001.10999.31.3501.31.69995l.04004 14.67004C61.60662 20.46959 61.01659 21.4896 60.31658 21.88975zM39.92663 14.16966l2.03998 1.06995c-.19.40015-.29999.84009-.29999 1.23999l.03998 14.67004c0 .09998.01001.19006.02002.28003l-1.71002-.92004c-.17999-.10999-.27997-.35999-.27997-.69995l-.04004-14.66992C39.69659 14.82969 39.7766 14.49961 39.92663 14.16966zM58.04662 3.05967c.17999-.10999.35999-.16003.51001-.16003.08997 0 .17999.02002.25995.05994l1.65002.90015c-.06.03003-.13.05994-.20001.09985-.11182.06459-17.17243 9.91885-17.07001 9.86011-.35564.20325-.71227.54202-.97998.97998l-2.04999-1.07007c.21997-.34985.5-.63989.81-.81995C51.41591 6.88582 54.13229 5.31838 58.04662 3.05967zM40.72662 12.4796c-.85999.48999-1.53003 1.66016-1.53003 2.66016l.04004 14.66992c0 .52002.17999.91992.53998 1.13l2.47003 1.33997c0 0 0 0 .00995 0 .3657.2353.85471.12236 1.24005-.09998l.60999-.34998v1.06006c0 .60986-.44 1.37988-.97003 1.68994L9.34661 54.0897c-.41474.25507-.72003.09781-.72003-.42004-.03489-11.85325.03725 9.62903-.07996-23.98999 0-.60999.45001-1.38.98999-1.68005L43.30663 8.4896c.39389-.24225.73999-.12478.73999.41003v1.66003L40.72662 12.4796zM62.34661 50.96959c-.02002-.01001-.03998-.0199-.06-.01001-.06-.02991-.14001-.0199-.20001.02002l-16.75 9.67004c-.07001.04004-.12.13-.12.21008-.01001.02002-.01001.03992 0 .06995.03003.10999.13.19006.23999.19006h4.69c.01001 0 .02002 0 .03003-.01001l11.98999.01001c.14001 0 .25-.11011.25-.25l.03998-6.87012c.01001-.03003.02002-.05994.02002-.09998l-.01001-2.70996C62.46661 51.09971 62.41662 51.01963 62.34661 50.96959zM61.96661 51.62974l-.01001 2.12988-11.85999 6.8501h-3.67999l7.77002-4.48999L61.96661 51.62974zM61.91662 60.61973l-10.82001-.01001 10.84998-6.27002L61.91662 60.61973z" class="color979aab svgShape"></path><path fill="#979fab" d="M65.81658,46.54966c0-0.09009-0.04999-0.16992-0.12994-0.20996c-0.07001-0.05005-0.17004-0.05005-0.25,0
				L37.34661,62.55967l-0.03998,0.02002c0,0-0.01001,0-0.01001,0.01001c-0.01001,0.01001-0.03003,0.02002-0.04004,0.03003
				c-0.00995,0.01001-0.01996,0.02002-0.01996,0.02991c-0.01001,0.01001-0.02002,0.02002-0.03003,0.04004
				c-0.01001,0.02991-0.01996,0.06995-0.01996,0.09998v2.70996c0,0.14014,0.12,0.25,0.25,0.25h28.03998
				c0.07001,0,0.13-0.03003,0.17999-0.06995c0.04999-0.04993,0.07001-0.10999,0.07001-0.18005l-0.01001-2.65991
				c0.01001-0.02002,0.01001-0.03003,0.01001-0.05005L65.81658,46.54966z M65.31658,46.9896l-0.08997,15.55005H38.36663
				L65.31658,46.9896z M65.22662,65.24961H37.68664v-2.20996h27.53998V65.24961z" class="color979aab svgShape"></path><path d="M40.54089 56.67222v-2.37744c0-.68111-.54383-1.24618-1.17432-1.52881l-6.70172-2.88501L46.1151 42.1146c1.28076-.74072 2.28418-2.47656 2.28418-3.95361-.00587-1.53008-.03445-8.96978-.03265-8.50134l12.32996-7.12c.92999-.54004 1.66003-1.80005 1.66003-2.88L62.31658 4.97959c-.01996-.65991-.28998-1.15991-.72998-1.36987l-2.39996-1.30005c-.43005-.25-.99005-.20996-1.51001.09998l-9.37 5.41003-.01001-3.40002c0-.84286-.40786-1.49835-.84802-1.74402l-2.62891-1.46777c-.54688-.32227-1.24414-.27148-1.96289.1416L3.35876 24.1522c-1.28711.74121-2.29541 2.4834-2.29541 3.96582v33.74561c.01172.80762.31152 1.42236.85889 1.73877l2.74463 1.47363c.02441.01318.05115.01062.0766.01929.62982.30909 1.26787.17411 1.87164-.1731l9.14233-5.2788c.06909.40625.31549.78174.72974 1.06934 2.01172 1.43408 6.69824 4.77392 6.79053 4.83349 1.07209.60899 2.76324.61102 3.85693-.01563l12.46045-7.45996C40.19616 57.723 40.54089 57.21373 40.54089 56.67222zM58.17663 3.26963c.29999-.16992.40997-.1499.51996-.08997l2.44 1.32996c.08002.03003.17004.19006.17999.47998l.04004 14.67004c0 .72009-.54004 1.66003-1.16003 2.02002-1.95163 1.1255-14.84436 8.56071-17.07996 9.84998-.43882.26844-.47675.03558-.69 0l-2.28003-1.23999c-.09998-.06006-.15997-.23999-.15997-.47998l-.04004-14.66992c0-.72009.54004-1.66016 1.16003-2.01001C53.92954 5.72068 52.19505 6.72475 58.17663 3.26963zM6.11559 64.05552c-.41211.2373-.7793.2793-1.00977.11816-.01123-.00793-.02448-.00903-.03607-.01599l-2.66071-1.42834c-.21338-.12354-.33936-.44434-.3457-.87305V28.11802c0-1.11963.82178-2.53906 1.79492-3.09961L43.35632 2.21568c.3877-.22217.73584-.27539.96582-.14063l2.63916 1.47363c.00671.00366.01428.0033.02112.00671.00171.0011.00244.00305.00421.00427.20001.14001.31.44995.31.85999l.01001 3.97009-6.70001 3.86987c-.92999.54004-1.66003 1.80005-1.66003 2.88013l.04004 14.66992c0 .60999.22998 1.08997.66998 1.34998l2.46997 1.33997c.31548.21032.90365.24973 1.5-.09998l3.74005-2.16003c.00042.10066.03478 8.4398.03265 7.92334 0 1.11328-.81738 2.52686-1.78467 3.08594l-14.30639 8.2605c-.00281.00159-.00623.0011-.00903.00269C28.49191 51.13326 41.01425 43.90164 6.11559 64.05552zM39.54089 56.67222c0 .17188-.1665.37109-.45264.53613l-12.45898 7.45898c-.7627.43652-2.09814.44141-2.82178.03174-.15381-.10645-6.74023-4.80078-6.74512-4.8042-.51678-.35932-.20818-.43457-.43402-.75439l14.95593-8.63574 7.4317 3.20557c.33324.25977.5249.31264.5249.58447V56.67222zM65.93664 46.54966c0-.13-.07001-.26001-.18005-.32007-.12-.06995-.25995-.06995-.38 0L37.24664 62.46959c-.12006.06006-.19.19006-.19.32007l.00995 2.70996c0 .20996.17004.38013.38.38013h28.04004c0 0 .01001 0 .01996 0 .20001 0 .37-.17017.37-.38013 0-.04004-.00995-.07996-.01996-.11987C65.96628 39.57492 65.92846 48.47503 65.93664 46.54966zM65.10662 65.12974H37.81658l-.00995-2.12011 27.38-15.80994-.01001 2.09753h-.83398v.75h.82404l-.00006.00244-.01001 2.04688h-.81396v.75h.81396v.00317l-.01001 2.04663h-.80396v.75h.79401l-.00006.0033-.01001 2.04651h-.78394v.75h.78394v.00354l-.0199 2.04578h-.76404v.75h.76398v.00415l-.01001 1.54004L65.10662 65.12974z" fill="#000000" class="color000000 svgShape"></path></svg>