<svg xmlns="http://www.w3.org/2000/svg" width="16" height="16" id="minus"><g fill-rule="evenodd" color="#000" font-family="sans-serif" font-weight="400"><path style="line-height:normal;text-indent:0;text-align:start;text-decoration-line:none;text-decoration-style:solid;text-decoration-color:#000;text-transform:none;block-progression:tb;isolation:auto;mix-blend-mode:normal" fill="#c2e4f8" d="M8 2c3.32 0 6 2.68 6 6s-2.68 6-6 6a5.994 5.994 0 0 1-6.002-6C1.998 4.68 4.68 2 8 2Zm3.492 5.498-6.988.012c-.668.001-.666 1.003.002 1.002l6.988-.014c.676.008.674-1.01-.002-1z" overflow="visible" transform="translate(0 .002)"></path><path style="line-height:normal;text-indent:0;text-align:start;text-decoration-line:none;text-decoration-style:solid;text-decoration-color:#000;text-transform:none;block-progression:tb;isolation:auto;mix-blend-mode:normal" fill="#249fe6" d="M8 1C4.14 1 1 4.14 1 8s3.14 7 7 7 7-3.14 7-7-3.14-7-7-7zm0 1c3.32 0 6 2.68 6 6s-2.68 6-6 6a5.994 5.994 0 0 1-6.002-6C1.998 4.68 4.68 2 8 2zm3.492 5.498-6.988.012a.501.501 0 0 0 .002 1.002l6.988-.014a.5.5 0 1 0-.002-1z" overflow="visible" transform="translate(0 .002)"></path></g></svg>