<svg xmlns="http://www.w3.org/2000/svg" width="16" height="16" id="plus"><g transform="translate(-1.03 -1106.225) scale(1.06642)"><circle cx="8.467" cy="1044.829" r="5.626" fill="#c2e4f8"></circle><path style="line-height:normal;text-indent:0;text-align:start;text-decoration-line:none;text-decoration-style:solid;text-decoration-color:#000;text-transform:none;block-progression:tb;isolation:auto;mix-blend-mode:normal" fill="#249fe6" fill-rule="evenodd" d="M8 1C4.14 1 1 4.14 1 8s3.14 7 7 7 7-3.14 7-7-3.14-7-7-7zm0 1c3.32 0 6 2.68 6 6s-2.68 6-6 6a5.994 5.994 0 0 1-6.002-6C1.998 4.68 4.68 2 8 2zm-.014 2.004a.5.5 0 0 0-.492.508L7.5 7.504l-2.996.006a.501.501 0 0 0 .002 1.002L7.5 8.506l.006 2.994a.5.5 0 1 0 1 0l-.004-2.996 2.992-.006a.5.5 0 1 0-.002-1L8.5 7.504l-.004-2.992a.5.5 0 0 0-.51-.506v-.002z" color="#000" font-family="sans-serif" font-weight="400" overflow="visible" transform="translate(.965 1037.328) scale(.93772)"></path></g></svg>