<svg xmlns="http://www.w3.org/2000/svg" width="32" height="32" id="student"><path d="M16.5 1a3 3 0 0 0-3 3 3 3 0 0 0 3 3 3 3 0 0 0 3-3 3 3 0 0 0-3-3zm6.816 1.004a.964.964 0 0 0-.646.355L18.03 8H14.5c-.033 0-.06.016-.092.02a.97.97 0 0 0-.672.357c-.02.025-.05.04-.068.068l-4 6a1 1 0 0 0 .83 1.555c.323 0 .391-.156.584-.445L13 12.303V16h6V9.363l5.018-5.722c.353-.425.422-1.057-.002-1.41a.943.943 0 0 0-.7-.227zM2.5 17a1 1 0 1 0 0 2H4v11a1 1 0 1 0 2 0V19h20v11a1 1 0 1 0 2 0V19h1.5a1 1 0 1 0 0-2h-27zm8.5 3v8.5a.5.5 0 1 0 1 0V20h-1zm2 0v8a1 1 0 1 0 2 0v-7h2v7a1 1 0 1 0 2 0v-8h-6zm7 0v8.5a.5.5 0 1 0 1 0V20h-1z"></path></svg>